<svg id="Layer_1" enable-background="new 0 0 256 256" height="512" viewBox="0 0 256 256" width="512" xmlns="http://www.w3.org/2000/svg"><path d="m52.677 67.376c-17.503 17.503-17.503 45.881 0 63.384l67.929 67.929c4.084 4.084 10.705 4.084 14.788 0l67.929-67.929c17.503-17.503 17.503-45.881 0-63.384-17.503-17.503-45.881-17.503-63.384 0l-11.939 11.938-11.939-11.939c-17.503-17.502-45.881-17.502-63.384.001z" fill="#ff4397"/><path d="m203.323 67.372c-9.804-9.804-23.021-14.113-35.827-12.934 10.056.926 19.859 5.235 27.557 12.934 17.503 17.503 17.296 44.382 0 63.384l-67.667 70.962c2.877.168 5.81-.835 8.008-3.033l67.929-67.929c17.503-17.503 17.503-45.88 0-63.384z" fill="#e12579"/><path d="m52.677 67.372c9.804-9.804 23.021-14.113 35.827-12.934-10.056.926-19.859 5.235-27.557 12.934-17.503 17.503-17.296 44.382 0 63.384l67.667 70.962c-2.877.168-5.81-.835-8.008-3.033l-67.929-67.929c-17.503-17.503-17.503-45.88 0-63.384z" fill="#ff61b5"/><path d="m56.731 126.824c-.61 0-1.213-.278-1.605-.806-2.174-2.92-3.986-6.089-5.385-9.42-.427-1.019.051-2.191 1.07-2.618 1.02-.428 2.19.051 2.619 1.069 1.273 3.033 2.924 5.919 4.905 8.581.66.886.477 2.139-.41 2.798-.359.267-.778.396-1.194.396z" fill="#690589"/><path d="m128 203.751c-3.328 0-6.456-1.296-8.808-3.649l-67.929-67.929c-18.255-18.254-18.255-47.958 0-66.212 18.254-18.255 47.958-18.255 66.212 0l10.525 10.525 10.524-10.524c18.255-18.255 47.958-18.255 66.212 0 18.255 18.254 18.255 47.958 0 66.212l-67.929 67.929c-2.351 2.353-5.479 3.648-8.807 3.648zm-43.631-147.482c-10.965 0-21.93 4.174-30.278 12.521-16.695 16.695-16.695 43.86 0 60.556l67.929 67.929c1.598 1.597 3.721 2.477 5.98 2.477s4.382-.88 5.98-2.477l67.929-67.929c16.695-16.695 16.695-43.86 0-60.556-16.696-16.695-43.86-16.694-60.556 0l-11.938 11.938c-.78.781-2.048.781-2.828 0l-11.94-11.938c-8.348-8.347-19.313-12.521-30.278-12.521z" fill="#690589"/><path d="m53.751 196.133h-6.729c-4.492 0-8.134-3.642-8.134-8.134v-4.645h-9.31c-4.492 0-8.134-3.642-8.134-8.134v-4.645h-8.961c-4.248 0-8.042-3.106-8.444-7.335-.462-4.851 3.34-8.933 8.096-8.933h41.617c11.55 0 20.913 9.363 20.913 20.913-.002 11.55-9.365 20.913-20.914 20.913z" fill="#f4efed"/><path d="m47.704 187.999v-.237c0-2.434-1.973-4.408-4.408-4.408h-4.408v4.645c0 4.492 3.642 8.134 8.134 8.134h6.729c.425 0 .846-.017 1.264-.042-4.106-.412-7.311-3.878-7.311-8.092z" fill="#fff"/><path d="m12.854 163.24c-.462-4.852 3.34-8.932 8.096-8.932h-8.816c-4.755 0-8.558 4.081-8.096 8.932.403 4.229 4.196 7.335 8.444 7.335h8.816c-4.248 0-8.041-3.106-8.444-7.335z" fill="#fff"/><path d="m30.26 175.22v-.237c0-2.434-1.973-4.408-4.408-4.408h-4.408v4.645c0 4.492 3.642 8.134 8.134 8.134h8.816c-4.493 0-8.134-3.642-8.134-8.134z" fill="#fff"/><g fill="#690589"><path d="m53.75 198.133h-6.729c-5.588 0-10.134-4.546-10.134-10.134v-2.645h-7.31c-5.588 0-10.134-4.546-10.134-10.134v-2.645h-6.961c-5.363 0-9.947-4.017-10.436-9.146-.271-2.853.672-5.697 2.588-7.804 1.917-2.108 4.65-3.318 7.499-3.318h41.617c12.634 0 22.913 10.279 22.913 22.913s-10.278 22.913-22.913 22.913zm-41.616-41.826c-1.724 0-3.378.732-4.54 2.009-1.177 1.294-1.732 2.976-1.565 4.734.295 3.098 3.129 5.525 6.453 5.525h8.961c1.104 0 2 .896 2 2v4.645c0 3.382 2.751 6.134 6.134 6.134h9.31c1.104 0 2 .896 2 2v4.645c0 3.382 2.751 6.134 6.134 6.134h6.729c10.428 0 18.913-8.484 18.913-18.913s-8.484-18.913-18.913-18.913z"/><path d="m30.657 172.575h-9.213c-1.104 0-2-.896-2-2s.896-2 2-2h9.213c1.104 0 2 .896 2 2s-.896 2-2 2z"/><path d="m48.187 185.354h-9.213c-1.104 0-2-.896-2-2s.896-2 2-2h9.213c1.104 0 2 .896 2 2s-.895 2-2 2z"/></g><path d="m202.249 196.133h6.729c4.492 0 8.134-3.642 8.134-8.134v-4.645h9.31c4.492 0 8.134-3.642 8.134-8.134v-4.645h8.961c4.248 0 8.042-3.106 8.444-7.335.462-4.851-3.34-8.933-8.096-8.933h-41.617c-11.55 0-20.913 9.363-20.913 20.913.002 11.55 9.365 20.913 20.914 20.913z" fill="#f4efed"/><path d="m208.296 187.999v-.237c0-2.434 1.974-4.408 4.408-4.408h4.408v4.645c0 4.492-3.642 8.134-8.134 8.134h-6.729c-.425 0-.846-.017-1.264-.042 4.106-.412 7.311-3.878 7.311-8.092z" fill="#d6d1cf"/><path d="m243.146 163.24c.462-4.852-3.34-8.932-8.096-8.932h8.816c4.755 0 8.558 4.081 8.096 8.932-.403 4.229-4.196 7.335-8.444 7.335h-8.816c4.248 0 8.041-3.106 8.444-7.335z" fill="#d6d1cf"/><path d="m225.74 175.22v-.237c0-2.434 1.973-4.408 4.408-4.408h4.408v4.645c0 4.492-3.642 8.134-8.134 8.134h-8.816c4.493 0 8.134-3.642 8.134-8.134z" fill="#d6d1cf"/><path d="m208.979 198.133h-6.729c-12.634 0-22.913-10.278-22.913-22.913s10.278-22.913 22.913-22.913h41.617c2.849 0 5.582 1.209 7.499 3.318 1.916 2.107 2.859 4.952 2.588 7.804-.489 5.129-5.072 9.146-10.436 9.146h-6.961v2.645c0 5.588-4.546 10.134-10.134 10.134h-7.31v2.645c-.001 5.588-4.547 10.134-10.134 10.134zm-6.729-41.826c-10.428 0-18.913 8.484-18.913 18.913 0 10.428 8.484 18.913 18.913 18.913h6.729c3.382 0 6.134-2.751 6.134-6.134v-4.645c0-1.104.896-2 2-2h9.31c3.382 0 6.134-2.751 6.134-6.134v-4.645c0-1.104.896-2 2-2h8.961c3.324 0 6.158-2.427 6.453-5.525.167-1.759-.388-3.44-1.565-4.734-1.161-1.276-2.815-2.009-4.54-2.009z" fill="#690589"/><path d="m234.556 172.575h-9.213c-1.104 0-2-.896-2-2s.896-2 2-2h9.213c1.104 0 2 .896 2 2s-.895 2-2 2z" fill="#690589"/><path d="m217.026 185.354h-9.213c-1.104 0-2-.896-2-2s.896-2 2-2h9.213c1.104 0 2 .896 2 2s-.896 2-2 2z" fill="#690589"/></svg>