<svg height="512" viewBox="0 0 60 46" width="512" xmlns="http://www.w3.org/2000/svg"><g id="Page-1" fill="none" fill-rule="evenodd"><g id="039---Cursor-Keyboard" fill-rule="nonzero"><rect id="Rectangle-path" fill="#02a9f4" height="22" rx="5" width="19" x="1" y="23"/><path id="Shape" d="m15 23h-3c2.7614237 0 5 2.2385763 5 5v12c0 2.7614237-2.2385763 5-5 5h3c2.7614237 0 5-2.2385763 5-5v-12c0-2.7614237-2.2385763-5-5-5z" fill="#0377bc"/><rect id="Rectangle-path" fill="#e91e63" height="22" rx="5" width="20" x="20" y="23"/><path id="Shape" d="m35 23h-3c2.7614237 0 5 2.2385763 5 5v12c0 2.7614237-2.2385763 5-5 5h3c2.7614237 0 5-2.2385763 5-5v-12c0-2.7614237-2.2385763-5-5-5z" fill="#ad1457"/><rect id="Rectangle-path" fill="#02a9f4" height="22" rx="5" width="20" x="20" y="1"/><path id="Shape" d="m35 1h-3c2.7614237 0 5 2.23857625 5 5v12c0 2.7614237-2.2385763 5-5 5h3c2.7614237 0 5-2.2385763 5-5v-12c0-2.76142375-2.2385763-5-5-5z" fill="#0377bc"/><g fill="#f5f5f5"><path id="Shape" d="m24 8c-.5522847 0-1-.44771525-1-1 0-1.65685425 1.3431458-3 3-3h1c.5522847 0 1 .44771525 1 1s-.4477153 1-1 1h-1c-.5522847 0-1 .44771525-1 1 0 .26521649-.1053568.5195704-.2928932.70710678s-.4418903.29289322-.7071068.29289322z"/><path id="Shape" d="m33 6h-2c-.5522847 0-1-.44771525-1-1s.4477153-1 1-1h2c.5522847 0 1 .44771525 1 1s-.4477153 1-1 1z"/><path id="Shape" d="m24 30c-.5522847 0-1-.4477153-1-1 0-1.6568542 1.3431458-3 3-3h1c.5522847 0 1 .4477153 1 1s-.4477153 1-1 1h-1c-.5522847 0-1 .4477153-1 1s-.4477153 1-1 1z"/><path id="Shape" d="m33 28h-2c-.5522847 0-1-.4477153-1-1s.4477153-1 1-1h2c.5522847 0 1 .4477153 1 1s-.4477153 1-1 1z"/><path id="Shape" d="m5 30c-.55228475 0-1-.4477153-1-1 0-1.6568542 1.34314575-3 3-3h1c.55228475 0 1 .4477153 1 1s-.44771525 1-1 1h-1c-.55228475 0-1 .4477153-1 1s-.44771525 1-1 1z"/><path id="Shape" d="m14 28h-2c-.5522847 0-1-.4477153-1-1s.4477153-1 1-1h2c.5522847 0 1 .4477153 1 1s-.4477153 1-1 1z"/></g><rect id="Rectangle-path" fill="#02a9f4" height="22" rx="5" width="19" x="40" y="23"/><path id="Shape" d="m54 23h-3c2.7614237 0 5 2.2385763 5 5v12c0 2.7614237-2.2385763 5-5 5h3c2.7614237 0 5-2.2385763 5-5v-12c0-1.3260824-.5267842-2.597852-1.4644661-3.5355339s-2.2094515-1.4644661-3.5355339-1.4644661z" fill="#0377bc"/><path id="Shape" d="m44 30c-.5522847 0-1-.4477153-1-1 0-1.6568542 1.3431458-3 3-3h1c.5522847 0 1 .4477153 1 1s-.4477153 1-1 1h-1c-.5522847 0-1 .4477153-1 1s-.4477153 1-1 1z" fill="#f5f5f5"/><path id="Shape" d="m53 28h-2c-.5522847 0-1-.4477153-1-1s.4477153-1 1-1h2c.5522847 0 1 .4477153 1 1s-.4477153 1-1 1z" fill="#f5f5f5"/><path id="Shape" d="m54 22h-9c-2.0124967.0016941-3.8901084 1.0122248-5 2.691-.4458533-.6706444-1.0210921-1.2455433-1.692-1.691 1.6791562-1.1096611 2.6900839-2.9873128 2.692-5v-12c-.0038574-3.3121094-2.6878906-5.99614262-6-6h-10c-3.3121094.00385738-5.9961426 2.6878906-6 6v12c.001472 2.0123062 1.0116057 3.889878 2.69 5-.6699639.4447029-1.2445041 1.0185631-1.69 1.688-1.1105827-1.6776325-2.9880746-2.6869722-5-2.688h-9c-3.3121094.0038574-5.99614262 2.6878906-6 6v12c.00330738 3.3123376 2.68766243 5.9966926 6 6h9c2.0123062-.001472 3.889878-1.0116057 5-2.69 1.110122 1.6783943 2.9876938 2.688528 5 2.69h10c2.0123062-.001472 3.889878-1.0116057 5-2.69 1.110122 1.6783943 2.9876938 2.688528 5 2.69h9c3.3121094-.0038574 5.9961426-2.6878906 6-6v-12c-.0038574-3.3121094-2.6878906-5.9961426-6-6zm-33-4v-12c0-2.209139 1.790861-4 4-4h10c2.209139 0 4 1.790861 4 4v12c0 2.209139-1.790861 4-4 4h-10c-2.209139 0-4-1.790861-4-4zm-6 26h-9c-2.209139 0-4-1.790861-4-4v-12c0-2.209139 1.790861-4 4-4h9c2.209139 0 4 1.790861 4 4v12c0 2.209139-1.790861 4-4 4zm20 0h-10c-2.209139 0-4-1.790861-4-4v-12c0-2.209139 1.790861-4 4-4h10c2.209139 0 4 1.790861 4 4v12c0 2.209139-1.790861 4-4 4zm23-4c0 2.209139-1.790861 4-4 4h-9c-2.209139 0-4-1.790861-4-4v-12c0-2.209139 1.790861-4 4-4h9c2.209139 0 4 1.790861 4 4z" fill="#000"/><path id="Shape" d="m32.341 9.325c-.5693197-.71156673-1.4312086-1.12578183-2.3425-1.12578183s-1.7731803.4142151-2.3425 1.12578183l-2.439 3.048c-.3449018.4316105-.2746105 1.0610982.157 1.406s1.0610982.2746105 1.406-.157l2.438-3.048c.1960277-.2266117.4808674-.356838.7805-.356838s.5844723.1302263.7805.356838l2.438 3.048c.3449018.4316105.9743895.5019018 1.406.157s.5019018-.9743895.157-1.406z" fill="#000"/><path id="Shape" d="m33.217 32.575-2.437 3.047c-.1958535.2272653-.4809865.3579473-.781.3579473s-.5851465-.130682-.781-.3579473l-2.438-3.047c-.2231124-.2792031-.5782297-.4181683-.9315829-.3645489-.3533531.0536195-.6512592.2916775-.7815.6245-.1302407.3328225-.0730295.7098458.1500829.9890489l2.44 3.048c.5693341.7111958 1.4309891 1.1251571 2.342 1.1251571s1.7726659-.4139613 2.342-1.1251571l2.439-3.047c.3449018-.4316105.2746105-1.0610982-.157-1.406s-1.0610982-.2746105-1.406.157z" fill="#000"/><path id="Shape" d="m11.6 31.794c.2988595-.2103573.4591601-.5669956.4180798-.930148-.0410803-.3631523-.2769975-.6749699-.6152955-.8132512-.3382979-.1382812-.725087-.0809984-1.0087843.1493992l-3.21 2.44c-.74539164.5543543-1.1847066 1.4285665-1.1847066 2.3575s.43931496 1.8031457 1.1847066 2.3575l3.21 2.439c.4406845.3101833 1.0479034.215373 1.3730542-.2143869.3251508-.4297598.2512728-1.0398793-.1670542-1.3796131l-3.21-2.438c-.24710887-.1766586-.39374252-.4617385-.39374252-.7655s.14663365-.5888414.39374252-.7655z" fill="#000"/><path id="Shape" d="m52.813 32.64-3.213-2.44c-.4401561-.3251632-1.0599249-.2361373-1.3907574.1997736-.3308326.4359108-.2498353 1.0567799.1817574 1.3932264l3.21 2.438c.2479155.1761192.3951887.4613947.3951887.7655s-.1472732.5893808-.3951887.7655l-3.207 2.438c-.418327.3397338-.492205.9498533-.1670542 1.3796131.3251508.4297599.9323697.5245702 1.3730542.2143869l3.21-2.439c.7461524-.5538587 1.1860601-1.4282514 1.1860601-2.3575s-.4399077-1.8036413-1.1860601-2.3575z" fill="#000"/></g></g></svg>