<svg height="512" viewBox="0 0 64 64" width="512" xmlns="http://www.w3.org/2000/svg"><g id="game_controller-video_game_controller-hands-monitors-gamepad" data-name="game controller-video game controller-hands-monitors-gamepad"><path d="m57 45v6.34l-2.41-2.41a2 2 0 0 0 -2.83 0 2.016 2.016 0 0 0 0 2.83l2.24 2.24-1 3a3.995 3.995 0 0 1 -4-4h-4a4 4 0 0 1 -4 4l-1-3 2.24-2.24a2 2 0 1 0 -2.83-2.83l-2.41 2.41v-6.34a4 4 0 0 1 4-4h12a4 4 0 0 1 4 4z" fill="#c6c5ca"/><path d="m27 45v6.34l-2.41-2.41a2 2 0 0 0 -2.83 0 2.016 2.016 0 0 0 0 2.83l2.24 2.24-1 3a3.995 3.995 0 0 1 -4-4h-4a4 4 0 0 1 -4 4l-1-3 2.24-2.24a2 2 0 0 0 -2.83-2.83l-2.41 2.41v-6.34a4 4 0 0 1 4-4h12a4 4 0 0 1 4 4z" fill="#c6c5ca"/><path d="m57 45v8a3.994 3.994 0 0 1 -6 3.46 4.225 4.225 0 0 0 .83-.63 4.025 4.025 0 0 0 1.17-2.83v-8a4 4 0 0 0 -4-4h4a4 4 0 0 1 4 4z" fill="#acabb1"/><path d="m27 45v8a3.994 3.994 0 0 1 -6 3.46 4.225 4.225 0 0 0 .83-.63 4.025 4.025 0 0 0 1.17-2.83v-8a4 4 0 0 0 -4-4h4a4 4 0 0 1 4 4z" fill="#acabb1"/><path d="m60.36 49.19a2.044 2.044 0 0 1 .36 1.8l-1.72 6.01v4h-6v-4l1-3-2.24-2.24a2 2 0 1 1 2.83-2.83l2.41 2.41v-6.34z" fill="#ffc477"/><path d="m54.59 48.93 2.41 2.41-1 1-3.41-3.41a1.752 1.752 0 0 0 -.42-.31 2 2 0 0 1 2.42.31z" fill="#ffa733"/><path d="m60.72 50.99-1.72 6.01v4h-2v-4l1.72-6.01a2.044 2.044 0 0 0 -.36-1.8l-1.36-1.7v-2.49l3.36 4.19a2.044 2.044 0 0 1 .36 1.8z" fill="#ffa733"/><rect fill="#46f8ff" height="16" rx="2" width="26" x="34" y="3"/><path d="m39 23h16v4h-16z" fill="#ff7956"/><path d="m42 19h10v4h-10z" fill="#fee9ab"/><circle cx="47" cy="47" fill="#9cdd05" r="2"/><path d="m42.24 48.93a2.016 2.016 0 0 1 0 2.83l-2.24 2.24 1 3v4h-6v-4l-1.72-6.01a2.044 2.044 0 0 1 .36-1.8l3.36-4.19v6.34l2.41-2.41a2 2 0 0 1 2.83 0z" fill="#ffc477"/><path d="m30.36 49.19a2.044 2.044 0 0 1 .36 1.8l-1.72 6.01v4h-6v-4l1-3-2.24-2.24a2 2 0 0 1 2.83-2.83l2.41 2.41v-6.34z" fill="#ffc477"/><rect fill="#46f8ff" height="16" rx="2" width="26" x="4" y="3"/><path d="m30 5v12a2.006 2.006 0 0 1 -2 2h-5a2.006 2.006 0 0 0 2-2v-12a2.006 2.006 0 0 0 -2-2h5a2.006 2.006 0 0 1 2 2z" fill="#00d7df"/><path d="m9 23h16v4h-16z" fill="#ff7956"/><path d="m12 19h10v4h-10z" fill="#fee9ab"/><path d="m21 23h4v4h-4z" fill="#ff5023"/><path d="m18 19h4v4h-4z" fill="#ffd422"/><path d="m60 5v12a2.006 2.006 0 0 1 -2 2h-5a2.006 2.006 0 0 0 2-2v-12a2.006 2.006 0 0 0 -2-2h5a2.006 2.006 0 0 1 2 2z" fill="#00d7df"/><path d="m51 23h4v4h-4z" fill="#ff5023"/><path d="m48 19h4v4h-4z" fill="#ffd422"/><circle cx="17" cy="47" fill="#ff3051" r="2"/><path d="m49 47a2 2 0 0 1 -3 1.73 2 2 0 0 0 0-3.46 2 2 0 0 1 3 1.73z" fill="#5eac24"/><path d="m19 47a2 2 0 0 1 -3 1.73 2 2 0 0 0 0-3.46 2 2 0 0 1 3 1.73z" fill="#cd2a00"/><path d="m12.24 48.93a2.016 2.016 0 0 1 0 2.83l-2.24 2.24 1 3v4h-6v-4l-1.72-6.01a2.044 2.044 0 0 1 .36-1.8l3.36-4.19v6.34l2.41-2.41a2 2 0 0 1 2.83 0z" fill="#ffc477"/><path d="m24.59 48.93 2.41 2.41-1 1-3.41-3.41a1.752 1.752 0 0 0 -.42-.31 2 2 0 0 1 2.42.31z" fill="#ffa733"/><path d="m30.72 50.99-1.72 6.01v4h-2v-4l1.72-6.01a2.044 2.044 0 0 0 -.36-1.8l-1.36-1.7v-2.49l3.36 4.19a2.044 2.044 0 0 1 .36 1.8z" fill="#ffa733"/><path d="m31.14 48.57-3.18-3.97a4.99 4.99 0 0 0 -4.96-4.6h-5v-3a1 1 0 0 1 1-1h5a3 3 0 0 0 0-6h-5a1 1 0 0 1 -1-1v-1h7a1 1 0 0 0 1-1v-4a1 1 0 0 0 -1-1h-2v-2h5a3.009 3.009 0 0 0 3-3v-12a3.009 3.009 0 0 0 -3-3h-22a3.009 3.009 0 0 0 -3 3v12a3.009 3.009 0 0 0 3 3h5v2h-2a1 1 0 0 0 -1 1v4a1 1 0 0 0 1 1h7v1a3.009 3.009 0 0 0 3 3h5a1 1 0 0 1 0 2h-5a3.009 3.009 0 0 0 -3 3v3h-5a4.99 4.99 0 0 0 -4.96 4.6l-3.18 3.97a3.047 3.047 0 0 0 -.54 2.7l1.68 5.87v3.86a1 1 0 0 0 1 1h6a1 1 0 0 0 1-1v-3.11a5.011 5.011 0 0 0 3.9-3.89h2.2a4.964 4.964 0 0 0 1.37 2.54 5.068 5.068 0 0 0 2.53 1.36v3.1a1 1 0 0 0 1 1h6a1 1 0 0 0 1-1v-3.86l1.68-5.87a3.047 3.047 0 0 0 -.54-2.7zm-25.14-30.57a1 1 0 0 1 -1-1v-12a1 1 0 0 1 1-1h22a1 1 0 0 1 1 1v12a1 1 0 0 1 -1 1zm15 2v2h-8v-2zm-11 6v-2h14v2zm-.95 28.32.95 2.84v2.84h-4v-3a.8.8 0 0 0 -.04-.27l-1.71-6.01a.975.975 0 0 1 .18-.9l1.57-1.97v3.49a.987.987 0 0 0 .62.92 1 1 0 0 0 1.09-.21l2.4-2.41a1 1 0 0 1 1.42 0 .951.951 0 0 1 .29.7.972.972 0 0 1 -.29.71l-2.24 2.24a1.028 1.028 0 0 0 -.24 1.03zm13.26 1.6a3.068 3.068 0 0 1 -1.43-.79 3.013 3.013 0 0 1 -.88-2.13 1 1 0 0 0 -1-1h-4a1 1 0 0 0 -1 1 3.012 3.012 0 0 1 -2.31 2.92l-.55-1.65 1.81-1.8a3.005 3.005 0 0 0 -4.25-4.25l-.7.71v-3.93a3.009 3.009 0 0 1 3-3h12a3.009 3.009 0 0 1 3 3v3.93l-.71-.71a3 3 0 0 0 -4.24 4.25l1.81 1.8zm7.44-5.2-1.71 6.01a.8.8 0 0 0 -.04.27v3h-4v-2.84l.95-2.84a1.028 1.028 0 0 0 -.24-1.03l-2.24-2.24a.972.972 0 0 1 -.29-.71.951.951 0 0 1 .29-.7.978.978 0 0 1 1.41 0l2.41 2.41a1 1 0 0 0 1.09.21.987.987 0 0 0 .62-.92v-3.49l1.57 1.97a.975.975 0 0 1 .18.9z"/><path d="m61.14 48.57-3.18-3.97a4.99 4.99 0 0 0 -4.96-4.6h-5v-3a3.009 3.009 0 0 0 -3-3h-5a1 1 0 0 1 0-2h5a3.009 3.009 0 0 0 3-3v-1h7a1 1 0 0 0 1-1v-4a1 1 0 0 0 -1-1h-2v-2h5a3.009 3.009 0 0 0 3-3v-12a3.009 3.009 0 0 0 -3-3h-22a3.009 3.009 0 0 0 -3 3v12a3.009 3.009 0 0 0 3 3h5v2h-2a1 1 0 0 0 -1 1v4a1 1 0 0 0 1 1h7v1a1 1 0 0 1 -1 1h-5a3 3 0 0 0 0 6h5a1 1 0 0 1 1 1v3h-5a4.99 4.99 0 0 0 -4.96 4.6l-3.18 3.97a3.047 3.047 0 0 0 -.54 2.7l1.68 5.87v3.86a1 1 0 0 0 1 1h6a1 1 0 0 0 1-1v-3.11a5.011 5.011 0 0 0 3.9-3.89h2.2a4.964 4.964 0 0 0 1.37 2.54 5.068 5.068 0 0 0 2.53 1.36v3.1a1 1 0 0 0 1 1h6a1 1 0 0 0 1-1v-3.86l1.68-5.87a3.047 3.047 0 0 0 -.54-2.7zm-25.14-30.57a1 1 0 0 1 -1-1v-12a1 1 0 0 1 1-1h22a1 1 0 0 1 1 1v12a1 1 0 0 1 -1 1zm15 2v2h-8v-2zm-11 6v-2h14v2zm-.95 28.32.95 2.84v2.84h-4v-3a.8.8 0 0 0 -.04-.27l-1.71-6.01a.975.975 0 0 1 .18-.9l1.57-1.97v3.49a.987.987 0 0 0 .62.92 1 1 0 0 0 1.09-.21l2.4-2.41a1 1 0 0 1 1.42 0 .951.951 0 0 1 .29.7.972.972 0 0 1 -.29.71l-2.24 2.24a1.028 1.028 0 0 0 -.24 1.03zm13.26 1.6a3.068 3.068 0 0 1 -1.43-.79 3.013 3.013 0 0 1 -.88-2.13 1 1 0 0 0 -1-1h-4a1 1 0 0 0 -1 1 3.012 3.012 0 0 1 -2.31 2.92l-.55-1.65 1.81-1.8a3.005 3.005 0 0 0 -4.25-4.25l-.7.71v-3.93a3.009 3.009 0 0 1 3-3h12a3.009 3.009 0 0 1 3 3v3.93l-.71-.71a3 3 0 0 0 -4.24 4.25l1.81 1.8zm7.44-5.2-1.71 6.01a.8.8 0 0 0 -.04.27v3h-4v-2.84l.95-2.84a1.028 1.028 0 0 0 -.24-1.03l-2.24-2.24a.972.972 0 0 1 -.29-.71.951.951 0 0 1 .29-.7.978.978 0 0 1 1.41 0l2.41 2.41a1 1 0 0 0 1.09.21.987.987 0 0 0 .62-.92v-3.49l1.57 1.97a.975.975 0 0 1 .18.9z"/><path d="m40 44h2v2h-2z"/><path d="m52 44h2v2h-2z"/><path d="m47 44a3 3 0 1 0 3 3 3 3 0 0 0 -3-3zm0 4a1 1 0 1 1 1-1 1 1 0 0 1 -1 1z"/><path d="m10 44h2v2h-2z"/><path d="m22 44h2v2h-2z"/><path d="m17 44a3 3 0 1 0 3 3 3.009 3.009 0 0 0 -3-3zm0 4a1 1 0 1 1 1-1 1 1 0 0 1 -1 1z"/><path d="m7 7v3h2v-2h2v-2h-3a1 1 0 0 0 -1 1z"/><path d="m7 12h2v2h-2z"/><path d="m37 7v3h2v-2h2v-2h-3a1 1 0 0 0 -1 1z"/><path d="m37 12h2v2h-2z"/></g></svg>