<svg height="512" viewBox="0 0 128 128" width="512" xmlns="http://www.w3.org/2000/svg"><g><g><circle cx="64" cy="64.024" fill="#ff595e" r="45"/><path d="m87.16 60.024h-19.16v-19.16a4 4 0 0 0 -8 0v19.16h-19.16a4 4 0 0 0 0 8h19.16v19.16a4 4 0 0 0 8 0v-19.16h19.16a4 4 0 0 0 0-8z" fill="#fffae3"/></g><g fill="#001363"><path d="m64 17.25a46.75 46.75 0 1 0 27.4 84.635 1.75 1.75 0 0 0 -2.052-2.835 43.242 43.242 0 1 1 14.021-17.109 1.75 1.75 0 1 0 3.184 1.454 46.772 46.772 0 0 0 -42.553-66.145z"/><path d="m97.409 91.469q-.365.444-.741.876a1.75 1.75 0 1 0 2.642 2.3q.406-.468.8-.946a1.75 1.75 0 1 0 -2.7-2.225z"/><path d="m64 92.91a5.756 5.756 0 0 0 5.75-5.75v-17.41h17.41a5.75 5.75 0 0 0 0-11.5h-17.41v-17.41a5.75 5.75 0 0 0 -11.5 0v17.41h-17.41a5.75 5.75 0 0 0 0 11.5h17.41v17.41a5.757 5.757 0 0 0 5.75 5.75zm-23.16-26.66a2.25 2.25 0 0 1 0-4.5h19.16a1.751 1.751 0 0 0 1.75-1.75v-19.16a2.25 2.25 0 0 1 4.5 0v19.16a1.75 1.75 0 0 0 1.75 1.75h19.16a2.25 2.25 0 0 1 0 4.5h-19.16a1.75 1.75 0 0 0 -1.75 1.75v19.16a2.25 2.25 0 0 1 -4.5 0v-19.16a1.751 1.751 0 0 0 -1.75-1.75z"/></g></g></svg>