<svg height="512" viewBox="0 0 64 64" width="512" xmlns="http://www.w3.org/2000/svg"><g id="joystick-gamepad-gaming-controller-wireless_controller" data-name="joystick-gamepad-gaming-controller-wireless controller"><circle cx="15" cy="31" fill="#c6c5ca" r="12"/><circle cx="49" cy="31" fill="#c6c5ca" r="12"/><g fill="#acabb1"><path d="m61 31a11.988 11.988 0 0 1 -14 11.83 12 12 0 0 0 0-23.66 11.988 11.988 0 0 1 14 11.83z"/><path d="m27 31a11.988 11.988 0 0 1 -14 11.83 12 12 0 0 0 0-23.66 11.988 11.988 0 0 1 14 11.83z"/><path d="m59 37.64v19.36a4 4 0 0 1 -4 4h-6.61a4 4 0 0 1 -3.95-3.34l-2.15-12.91a6.044 6.044 0 0 0 1.71.25 5.957 5.957 0 0 0 4.48-2.02 4.52 4.52 0 0 0 .52.02 12 12 0 0 0 10-5.36z"/></g><path d="m59 37.64v19.36a4 4 0 0 1 -4 4h-4a4 4 0 0 0 4-4v-15.61a11.962 11.962 0 0 0 4-3.75z" fill="#898890"/><circle cx="53" cy="26" fill="#ffcd00" r="2"/><circle cx="53" cy="34" fill="#9cdd05" r="2"/><path d="m53 17v2.69a11.939 11.939 0 0 0 -8 0v-2.69a2.006 2.006 0 0 1 2-2h4a2.006 2.006 0 0 1 2 2z" fill="#a78966"/><path d="m44 33a6 6 0 0 1 6 6 6.018 6.018 0 0 1 -6 6 6 6 0 0 1 -6-6 5.93 5.93 0 0 1 .45-2.27v-.01a5.993 5.993 0 0 1 5.55-3.72z" fill="#787680"/><path d="m50 39a6.018 6.018 0 0 1 -6 6 6.044 6.044 0 0 1 -1.71-.25c-.09-.03-.19-.06-.28-.1a6.024 6.024 0 0 0 3.99-5.65 6.013 6.013 0 0 0 -4.01-5.66 6.016 6.016 0 0 1 8.01 5.66z" fill="#57565c"/><circle cx="45" cy="26" fill="#ff3051" r="2"/><path d="m35 23h5.05a12.013 12.013 0 0 0 -1.6 13.72v.01a5.93 5.93 0 0 0 -.45 2.27h-11a5.893 5.893 0 0 0 -.97-3.26 12.034 12.034 0 0 0 -2.08-12.74z" fill="#acabb1"/><path d="m35 21v2h-6v-2a2.006 2.006 0 0 1 2-2h2a2.006 2.006 0 0 1 2 2z" fill="#806749"/><path d="m26.03 35.74a5.893 5.893 0 0 1 .97 3.26 6 6 0 0 1 -10.55 3.91 5.98 5.98 0 0 1 .09-7.91 3.333 3.333 0 0 1 .46-.46 5.978 5.978 0 0 1 9.03 1.2z" fill="#787680"/><path d="m22.71 44.75-2.15 12.91a4 4 0 0 1 -3.95 3.34h-6.61a4 4 0 0 1 -4-4v-18.06a11.982 11.982 0 0 0 9 4.06 11.521 11.521 0 0 0 1.45-.09 5.982 5.982 0 0 0 4.55 2.09 6.044 6.044 0 0 0 1.71-.25z" fill="#acabb1"/><path d="m21 27v4h-4v3.54a3.333 3.333 0 0 0 -.46.46h-3.54v-4h-4v-4h4v-4h4v4z" fill="#2488ff"/><path d="m19 17v2.69a11.939 11.939 0 0 0 -8 0v-2.69a2.006 2.006 0 0 1 2-2h4a2.006 2.006 0 0 1 2 2z" fill="#a78966"/><path d="m27 39a6.018 6.018 0 0 1 -6 6 6.044 6.044 0 0 1 -1.71-.25c-.09-.03-.19-.06-.28-.1a6.024 6.024 0 0 0 3.99-5.65 6.013 6.013 0 0 0 -4.01-5.66 6.016 6.016 0 0 1 8.01 5.66z" fill="#57565c"/><path d="m21 27v4h-4v4h-2v-12h2v4z" fill="#006df0"/><path d="m54 19v-2a3.009 3.009 0 0 0 -3-3h-4a3.009 3.009 0 0 0 -3 3v2a13.222 13.222 0 0 0 -4.36 3h-3.64v-1a3.009 3.009 0 0 0 -3-3h-2a3.009 3.009 0 0 0 -3 3v1h-3.64a13.222 13.222 0 0 0 -4.36-3v-2a3.009 3.009 0 0 0 -3-3h-4a3.009 3.009 0 0 0 -3 3v2a12.984 12.984 0 0 0 -5 20.29v17.71a5 5 0 0 0 5 5h6.61a4.978 4.978 0 0 0 4.93-4.18l2.06-12.33a7 7 0 0 0 4.32-5.49h9.16a7 7 0 0 0 4.32 5.49l2.06 12.33a4.978 4.978 0 0 0 4.93 4.18h6.61a5 5 0 0 0 5-5v-19.08a12.991 12.991 0 0 0 -6-18.92zm-8-2a1 1 0 0 1 1-1h4a1 1 0 0 1 1 1v1.36a12.68 12.68 0 0 0 -6 0zm-16 4a1 1 0 0 1 1-1h2a1 1 0 0 1 1 1v1h-4zm-18-4a1 1 0 0 1 1-1h4a1 1 0 0 1 1 1v1.36a12.68 12.68 0 0 0 -6 0zm7.57 40.49a2.988 2.988 0 0 1 -2.96 2.51h-6.61a3.009 3.009 0 0 1 -3-3v-15.77a13.026 13.026 0 0 0 8 2.77c.35 0 .7-.04 1.04-.06a6.991 6.991 0 0 0 4.96 2.06c.17 0 .33-.01.49-.02zm-6.57-27.49h-3v-2h3a1 1 0 0 0 1-1v-3h2v3a1 1 0 0 0 1 1h3v2h-3a1 1 0 0 0 -1 1v3h-2v-3a1 1 0 0 0 -1-1zm8 14a5 5 0 1 1 5-5 5 5 0 0 1 -5 5zm4.64-10.23a6.964 6.964 0 0 0 -4.64-1.77 6.884 6.884 0 0 0 -3 .69v-.69h3a1 1 0 0 0 1-1v-4a1 1 0 0 0 -1-1h-3v-3a1 1 0 0 0 -1-1h-4a1 1 0 0 0 -1 1v3h-3a1 1 0 0 0 -1 1v4a1 1 0 0 0 1 1h3v3a1 1 0 0 0 1 1h1.69a6.868 6.868 0 0 0 -.01 5.98 10.992 10.992 0 1 1 11.32-10.98 11.133 11.133 0 0 1 -.36 2.77zm11.44 4.23h-9.16a6.909 6.909 0 0 0 -.79-2.37 12.733 12.733 0 0 0 .87-4.63 12.89 12.89 0 0 0 -2.06-7h12.12a12.89 12.89 0 0 0 -2.06 7 13.063 13.063 0 0 0 1.37 5.77 7.11 7.11 0 0 0 -.29 1.23zm1.92 1a5 5 0 1 1 5 5 5 5 0 0 1 -5-5zm19 18a3.009 3.009 0 0 1 -3 3h-6.61a2.988 2.988 0 0 1 -2.96-2.51l-1.92-11.51c.16.01.32.02.49.02a7 7 0 0 0 4.89-2h.11a12.956 12.956 0 0 0 9-3.64zm.17-19.91a11.022 11.022 0 0 1 -7.81 4.83 7 7 0 0 0 -11.76-7.37 11.208 11.208 0 0 1 -.6-3.55 11 11 0 1 1 20.17 6.09z"/><path d="m21 36v2a1 1 0 0 1 1 1h2a3 3 0 0 0 -3-3z"/><path d="m9 47h2v9h-2z"/><path d="m54 46h2v10h-2z"/><path d="m44 36a3 3 0 0 0 -3 3h2a1 1 0 0 1 1-1z"/><path d="m49 4a8.945 8.945 0 0 1 6.363 2.637l1.414-1.414a10.994 10.994 0 0 0 -15.554 0l1.414 1.414a8.945 8.945 0 0 1 6.363-2.637z"/><path d="m53.951 8.056a6.989 6.989 0 0 0 -9.9 0l1.419 1.408a4.988 4.988 0 0 1 7.06 0z"/><path d="m46.874 10.893 1.432 1.394a1.009 1.009 0 0 1 1.388 0l1.432-1.394a3.046 3.046 0 0 0 -4.252 0z"/><path d="m15 4a8.945 8.945 0 0 1 6.363 2.637l1.414-1.414a10.994 10.994 0 0 0 -15.554 0l1.414 1.414a8.945 8.945 0 0 1 6.363-2.637z"/><path d="m19.951 8.056a6.989 6.989 0 0 0 -9.9 0l1.419 1.408a4.988 4.988 0 0 1 7.06 0z"/><path d="m12.874 10.893 1.432 1.394a1.009 1.009 0 0 1 1.388 0l1.432-1.394a3.046 3.046 0 0 0 -4.252 0z"/><path d="m45 29a3 3 0 1 0 -3-3 3 3 0 0 0 3 3zm0-4a1 1 0 1 1 -1 1 1 1 0 0 1 1-1z"/><path d="m53 29a3 3 0 1 0 -3-3 3 3 0 0 0 3 3zm0-4a1 1 0 1 1 -1 1 1 1 0 0 1 1-1z"/><path d="m53 37a3 3 0 1 0 -3-3 3 3 0 0 0 3 3zm0-4a1 1 0 1 1 -1 1 1 1 0 0 1 1-1z"/></g></svg>