<svg height="512" viewBox="-42 0 511 512" width="512" xmlns="http://www.w3.org/2000/svg"><path d="m216.742188 7.605469h-185.449219c-12.808594 0-23.195313 10.382812-23.195313 23.195312v307.84375c0 12.808594 10.386719 23.195313 23.195313 23.195313h185.449219c12.8125 0 23.195312-10.386719 23.195312-23.195313v-307.847656c0-12.808594-10.382812-23.191406-23.195312-23.191406zm0 0" fill="#405968"/><path d="m49.191406 361.835938h-17.902344c-12.808593 0-23.1875-10.378907-23.1875-23.191407v-307.847656c0-12.8125 10.378907-23.191406 23.1875-23.191406h17.902344c-12.8125 0-23.191406 10.378906-23.191406 23.191406v307.847656c0 12.8125 10.378906 23.191407 23.191406 23.191407zm0 0" fill="#273c47"/><path d="m8.101562 43.246094h231.832032v269.148437h-231.832032zm0 0" fill="#ef5e72"/><path d="m8.097656 43.242188h17.902344v269.152343h-17.902344zm0 0" fill="#d33752"/><path d="m222.03125 43.242188h17.902344v269.152343h-17.902344zm0 0" fill="#fc92a4"/><path d="m396.640625 150.164062h-185.449219c-12.8125 0-23.195312 10.382813-23.195312 23.195313v307.84375c0 12.808594 10.382812 23.195313 23.195312 23.195313h185.449219c12.808594 0 23.195313-10.386719 23.195313-23.195313v-307.84375c-.003907-12.8125-10.386719-23.195313-23.195313-23.195313zm0 0" fill="#405968"/><path d="m229.085938 504.394531h-17.898438c-12.808594 0-23.191406-10.378906-23.191406-23.191406v-307.847656c0-12.808594 10.382812-23.191407 23.191406-23.191407h17.898438c-12.808594 0-23.191407 10.382813-23.191407 23.191407v307.847656c0 12.8125 10.382813 23.191406 23.191407 23.191406zm0 0" fill="#273c47"/><path d="m187.996094 185.804688h231.835937v269.152343h-231.835937zm0 0" fill="#8dc2d3"/><path d="m187.992188 185.800781h17.902343v269.15625h-17.902343zm0 0" fill="#62a5b5"/><path d="m401.929688 185.800781h17.902343v269.15625h-17.902343zm0 0" fill="#a8d9e5"/><path d="m141.917969 328.035156h-35.800781c-4.199219 0-7.601563 3.402344-7.601563 7.601563s3.402344 7.605469 7.601563 7.605469h35.800781c4.199219 0 7.605469-3.40625 7.605469-7.605469s-3.40625-7.601563-7.605469-7.601563zm0 0"/><path d="m396.640625 142.558594h-149.101563v-111.757813c0-16.984375-13.8125-30.800781-30.792968-30.800781h-185.453125c-16.980469 0-30.792969 13.816406-30.792969 30.800781v100.753907c0 4.199218 3.402344 7.601562 7.605469 7.601562 4.199219 0 7.601562-3.402344 7.601562-7.601562v-80.710938h216.621094v91.714844h-21.136719c-16.984375 0-30.800781 13.816406-30.800781 30.800781v131.425781h-164.683594v-142.8125c0-4.199218-3.402343-7.605468-7.601562-7.605468-4.203125 0-7.605469 3.40625-7.605469 7.605468v176.667969c0 16.980469 13.8125 30.800781 30.789062 30.800781h149.101563v111.761719c0 16.980469 13.816406 30.796875 30.800781 30.796875h185.449219c16.980469 0 30.796875-13.816406 30.796875-30.796875v-307.84375c0-16.984375-13.816406-30.800781-30.796875-30.800781zm-380.933594-106.921875v-4.835938c0-8.597656 6.992188-15.59375 15.582031-15.59375h185.457032c8.59375 0 15.582031 6.996094 15.582031 15.59375v4.835938zm195.484375 122.132812h185.449219c8.59375 0 15.589844 6.992188 15.589844 15.589844v4.835937h-23.445313c-4.199218 0-7.605468 3.40625-7.605468 7.605469s3.40625 7.605469 7.605468 7.605469h23.445313v253.941406h-216.628907v-253.941406h162.765626c4.199218 0 7.605468-3.40625 7.605468-7.605469s-3.40625-7.605469-7.605468-7.605469h-162.765626v-4.835937c0-8.597656 6.992188-15.589844 15.589844-15.589844zm-179.898437 196.460938c-8.59375 0-15.585938-6.992188-15.585938-15.589844v-18.644531h164.683594v34.234375zm365.347656 142.5625h-185.449219c-8.597656 0-15.589844-6.996094-15.589844-15.589844v-18.648437h216.628907v18.648437c0 8.597656-6.996094 15.589844-15.589844 15.589844zm0 0"/><path d="m321.8125 470.59375h-35.796875c-4.203125 0-7.605469 3.40625-7.605469 7.605469s3.402344 7.601562 7.605469 7.601562h35.796875c4.203125 0 7.605469-3.402343 7.605469-7.601562s-3.402344-7.605469-7.605469-7.605469zm0 0"/><path d="m284.054688 60.683594c1.324218 2.6875 4.019531 4.242187 6.824218 4.242187 1.128906 0 2.277344-.25 3.359375-.78125 3.765625-1.859375 5.3125-6.417969 3.457031-10.183593l-8.511718-17.265626c48.535156 16.640626 90.429687 49.144532 118.792968 92.425782 1.457032 2.226562 3.886719 3.4375 6.367188 3.4375 1.429688 0 2.875-.402344 4.160156-1.246094 3.511719-2.304688 4.492188-7.015625 2.191406-10.527344-30.003906-45.785156-74.230468-80.242187-125.484374-98.089844l15.738281-7.761718c3.769531-1.855469 5.316406-6.414063 3.460937-10.179688-1.855468-3.769531-6.417968-5.316406-10.183594-3.460937l-32.960937 16.246093c-1.808594.894532-3.1875 2.46875-3.835937 4.375-.652344 1.910157-.515626 4 .378906 5.808594zm0 0"/><path d="m143.875 451.320312c-1.855469-3.769531-6.417969-5.320312-10.179688-3.460937-3.769531 1.855469-5.316406 6.414063-3.460937 10.183594l8.507813 17.257812c-48.542969-16.644531-90.398438-49.101562-118.789063-92.417969-2.300781-3.511718-7.015625-4.496093-10.527344-2.191406-3.511719 2.300782-4.492187 7.011719-2.191406 10.527344 30.03125 45.824219 74.222656 80.242188 125.484375 98.089844l-15.738281 7.757812c-3.769531 1.855469-5.316407 6.414063-3.460938 10.179688 1.324219 2.6875 4.023438 4.246094 6.828125 4.246094 1.128906 0 2.273438-.253907 3.355469-.785157l32.960937-16.246093c3.765626-1.855469 5.3125-6.414063 3.457032-10.179688zm0 0"/></svg>